# xmcd CD database file
#
# Track frame offsets:
#	150
#	58674
#	97206
#	119337
#	160836
#	181853
#	215452
#	252673
#	269151
#	299814
#
# Disc length: 4355 seconds
#
# Revision: 0
# Processed by: cddbd v1.5.2PL0 Copyright (c) Steve Scherf et al.
# Submitted via: CDex 1.70beta2
#
DISCID=a711010a
DTITLE=Loceng Balik Sarga Setia - Musik for Evening Relaxing
DYEAR=1900
DGENRE=New Age
TTITLE0=Cengak Mrenggang
TTITLE1=Seketi
TTITLE2=Tabuh Gari
TTITLE3=Sekar Ginotan
TTITLE4=Tulang Lindung
TTITLE5=Tabuh Lestari
TTITLE6=Sekar Madu
TTITLE7=Brayut
TTITLE8=Sekar Jepun
TTITLE9=Sekar Sungsang
EXTD=
EXTT0=
EXTT1=
EXTT2=
EXTT3=
EXTT4=
EXTT5=
EXTT6=
EXTT7=
EXTT8=
EXTT9=
PLAYORDER=
